<?xml version="1.0" encoding="UTF-8" standalone="no"?>
<!-- Created with Inkscape (http://www.inkscape.org/) -->

<svg
   xmlns:dc="http://purl.org/dc/elements/1.1/"
   xmlns:cc="http://creativecommons.org/ns#"
   xmlns:rdf="http://www.w3.org/1999/02/22-rdf-syntax-ns#"
   xmlns:svg="http://www.w3.org/2000/svg"
   xmlns="http://www.w3.org/2000/svg"
   xmlns:sodipodi="http://sodipodi.sourceforge.net/DTD/sodipodi-0.dtd"
   xmlns:inkscape="http://www.inkscape.org/namespaces/inkscape"
   width="820mm"
   height="312mm"
   viewBox="0 0 820 312"
   version="1.1"
   id="svg11244"
   inkscape:version="0.92.4 (5da689c313, 2019-01-14)"
   sodipodi:docname="820x312Banner.svg">
  <defs
     id="defs11238" />
  <sodipodi:namedview
     id="base"
     pagecolor="#ffffff"
     bordercolor="#666666"
     borderopacity="1.0"
     inkscape:pageopacity="0.0"
     inkscape:pageshadow="2"
     inkscape:zoom="0.12374369"
     inkscape:cx="400"
     inkscape:cy="560"
     inkscape:document-units="mm"
     inkscape:current-layer="layer1"
     showgrid="false"
     inkscape:window-width="1280"
     inkscape:window-height="634"
     inkscape:window-x="0"
     inkscape:window-y="31"
     inkscape:window-maximized="1" />
  <metadata
     id="metadata11241">
    <rdf:RDF>
      <cc:Work
         rdf:about="">
        <dc:format>image/svg+xml</dc:format>
        <dc:type
           rdf:resource="http://purl.org/dc/dcmitype/StillImage" />
        <dc:title></dc:title>
      </cc:Work>
    </rdf:RDF>
  </metadata>
  <g
     inkscape:label="Layer 1"
     inkscape:groupmode="layer"
     id="layer1"
     transform="translate(0,15)">
    <g
       id="g980-1-0"
       transform="matrix(2.424807,0,0,2.0071117,-151.14221,-184.61142)"
       style="fill:#00aad4;fill-opacity:1">
      <path
         d="M 62.166515,84.873373 H 401.10185 V 241.62979 H 62.166515 Z"
         style="fill:#00aad4;fill-opacity:1;fill-rule:nonzero;stroke:none;stroke-width:1.17685878"
         id="path210-2-0"
         inkscape:connector-curvature="0" />
    </g>
    <text
       xml:space="preserve"
       style="font-style:normal;font-variant:normal;font-weight:normal;font-stretch:normal;font-size:19.47712135px;line-height:1.25;font-family:Comfortaa;-inkscape-font-specification:Comfortaa;text-align:center;letter-spacing:0px;word-spacing:0px;text-anchor:middle;fill:#000000;fill-opacity:1;stroke:none;stroke-width:0.2608543"
       x="271.02783"
       y="65.336327"
       id="text10704"
       transform="scale(0.99884376,1.0011576)"><tspan
         sodipodi:role="line"
         id="tspan10702"
         x="273.88092"
         y="65.336327"
         style="stroke-width:0.2608543"> </tspan></text>
    <g
       id="g10937"
       transform="matrix(0.96739893,0,0,0.9696399,8.1466048,-731.29115)">
      <g
         transform="matrix(1.6283935,0,0,1.6283935,-463.99767,-538.17368)"
         id="g10912">
        <path
           inkscape:connector-curvature="0"
           id="path620"
           style="fill:#f9f9f9;fill-opacity:0.92549002;fill-rule:nonzero;stroke:none;stroke-width:2.65750003"
           d="m 759.36277,881.18381 c -0.17804,36.94457 -33.65723,66.75906 -74.77408,66.58366 -41.10887,-0.17806 -74.29573,-30.28221 -74.13097,-67.22678 0.17806,-36.95785 33.64395,-66.76969 74.75283,-66.59429 41.1195,0.17805 74.31699,30.27158 74.15222,67.23741" />
        <path
           inkscape:connector-curvature="0"
           id="path622"
           style="fill:#ffffff;fill-opacity:1;fill-rule:nonzero;stroke:none;stroke-width:2.65750003"
           d="m 716.11461,898.95451 c -2.56448,3.80023 -5.71894,6.572 -9.96562,7.95389 -1.57856,0.50759 -3.2076,0.71488 -4.8898,0.74676 0.18869,-1.07894 0.39597,-2.08613 0.52884,-3.09333 0.69627,-4.99344 -0.12227,-9.75834 -2.09677,-14.34783 -2.61497,-6.02988 -6.92278,-10.6805 -12.14476,-14.55248 -1.56793,-1.16399 -3.23951,-2.21104 -4.90044,-3.35376 4.30781,0.30029 8.51198,0.17538 12.45837,-1.67157 2.18977,3.28201 5.58339,4.95092 8.8229,6.77928 2.59637,1.46428 5.2831,2.75051 7.50478,4.79679 4.14304,3.80819 6.71815,8.50134 7.96186,13.98111 0.49961,2.17117 0.99657,4.35033 1.02845,6.59325 0.0824,7.99377 -3.1757,14.36645 -9.60154,19.07023 -4.98282,3.64343 -10.58748,5.8837 -16.69176,6.81914 -10.80806,1.6503 -20.05616,-1.70346 -28.1323,-8.80429 -3.22886,-2.84353 -5.33626,-6.4657 -7.30813,-10.18354 -2.36783,-4.44069 -4.2892,-9.06209 -6.03252,-13.7632 -0.73613,-1.99312 -1.62905,-3.90387 -2.91527,-5.60732 -2.12867,-2.83291 -4.35033,-3.82947 -7.89013,-3.67268 1.73269,-0.98859 3.44678,-2.03564 5.222,-2.96045 3.63279,-1.87885 7.46226,-3.16508 11.53089,-3.64343 7.27889,-0.85041 13.68346,1.1321 19.17386,6.01127 3.12522,2.79303 5.05722,6.35408 6.54011,10.20479 0.69627,1.83633 1.40315,3.67533 2.16055,5.50104 2.04361,4.99343 5.87573,7.70143 11.10568,8.6475 3.55043,0.63248 6.99721,0.48897 10.24733,-1.16399 4.14304,-2.10474 6.65438,-5.6153 8.28342,-9.85932 0.0212,-0.0531 0,-0.13554 0,-0.42786" />
        <path
           inkscape:connector-curvature="0"
           id="path624"
           style="fill:#ffffff;fill-opacity:1;fill-rule:nonzero;stroke:none;stroke-width:2.65750003"
           d="m 690.25714,874.62244 c 5.47977,4.29718 9.31985,9.09396 11.69832,14.61625 2.24292,5.16884 3.01095,10.42272 2.30405,15.61282 0.38534,-0.093 0.75739,-0.18604 1.12147,-0.30031 3.46804,-1.12146 6.21854,-3.3325 8.67939,-6.98657 0.60059,-0.90354 1.72206,-1.29686 2.76115,-0.98593 0.0505,0.0212 0.093,0.0319 0.13286,0.0505 -1.19321,-5.1077 -3.52915,-9.22683 -7.19385,-12.60186 -1.58652,-1.44302 -3.5079,-2.5007 -5.55151,-3.61154 -0.49961,-0.29232 -1.0072,-0.56073 -1.49617,-0.84243 -0.32156,-0.17539 -0.63249,-0.36142 -0.95404,-0.52884 -2.49275,-1.38987 -5.27515,-2.94717 -7.46493,-5.40802 -1.33937,0.46772 -2.69736,0.78928 -4.03674,0.98595 m -41.75199,11.11898 c 1.16133,0.74674 2.22168,1.76457 3.20761,3.10396 1.28623,1.69016 2.32531,3.66469 3.26872,6.21854 1.95327,5.28311 3.82149,9.56966 5.88637,13.47352 1.78584,3.35377 3.77896,6.86168 6.75802,9.47665 7.9725,6.99721 16.51636,9.69722 26.11792,8.22231 5.80397,-0.89292 11.04456,-3.03221 15.62344,-6.37268 5.85446,-4.28922 8.65813,-9.87262 8.57574,-17.04786 0,-0.40395 -0.0212,-0.80789 -0.0638,-1.22245 -2.02502,4.6081 -4.95092,7.83695 -8.91592,9.85932 -3.44678,1.7566 -7.30812,2.20307 -11.81524,1.39252 -6.30093,-1.14272 -10.65923,-4.55761 -12.96594,-10.14102 -0.75739,-1.84961 -1.46164,-3.68594 -2.17916,-5.54354 -1.61841,-4.23605 -3.43614,-7.07958 -5.87573,-9.25076 -4.96155,-4.41145 -10.59811,-6.18666 -17.23123,-5.40802 -3.4893,0.41458 -6.98656,1.50416 -10.39083,3.23951 m 40.65976,45.83125 c -8.94781,0.0824 -17.27375,-3.22887 -24.7998,-9.84073 -3.61154,-3.16775 -5.8651,-7.11148 -7.86885,-10.87981 -2.16853,-4.11115 -4.12975,-8.58638 -6.15478,-14.07677 -0.77864,-2.07552 -1.58917,-3.65407 -2.5751,-4.96156 -1.62905,-2.16055 -3.04019,-2.80367 -5.80133,-2.67876 -1.14272,0.0531 -2.17118,-0.68564 -2.49273,-1.78584 -0.32156,-1.10021 0.15678,-2.28279 1.15334,-2.84353 0.53948,-0.30029 1.06832,-0.61388 1.6078,-0.92481 1.19587,-0.70424 2.42896,-1.42176 3.70721,-2.08613 4.02612,-2.09677 8.19041,-3.41489 12.38395,-3.90387 7.99376,-0.95405 15.08397,1.27826 21.09523,6.61452 3.01893,2.68673 5.31501,6.23715 7.21246,11.1801 0.69627,1.83633 1.40316,3.63281 2.13929,5.42927 1.65031,4.03675 4.60013,6.3222 9.25873,7.16196 0.27107,0.0426 0.54212,0.0824 0.79991,0.12491 -0.0505,-0.2817 -0.0611,-0.57136 -0.0105,-0.86103 0.0638,-0.35345 0.13553,-0.69627 0.18868,-1.03908 0.12227,-0.69627 0.24715,-1.33939 0.34282,-1.9825 0.60059,-4.36096 -0.0212,-8.61561 -1.93201,-13.01909 -2.21103,-5.09709 -5.90762,-9.5298 -11.33688,-13.54528 -1.0258,-0.75739 -2.09678,-1.46428 -3.22887,-2.22167 -0.52885,-0.35345 -1.05769,-0.70689 -1.59716,-1.07097 -0.92481,-0.63248 -1.30749,-1.80444 -0.94606,-2.85416 0.37469,-1.05768 1.40315,-1.74332 2.51398,-1.66093 3.69393,0.2498 7.60843,0.26043 11.23061,-1.45366 1.11082,-0.50758 2.42894,-0.1435 3.11458,0.87431 1.63968,2.4582 4.24668,3.91185 7.00783,5.44789 0.32156,0.18867 0.65374,0.36407 0.9753,0.53947 0.47835,0.28169 0.95404,0.54213 1.44303,0.81053 2.21104,1.21448 4.49382,2.46085 6.51885,4.32908 4.39284,4.0394 7.31875,9.16571 8.70065,15.23809 l 0.0186,0.0957 c 0.51025,2.24028 1.04971,4.55496 1.07098,7.02644 0.1037,8.7724 -3.46804,15.87324 -10.60874,21.10321 -5.222,3.82148 -11.20137,6.26106 -17.78399,7.26826 -1.80445,0.27904 -3.59029,0.43583 -5.34689,0.44646" />
        <path
           inkscape:connector-curvature="0"
           id="path626"
           style="fill:#ffffff;fill-opacity:1;fill-rule:nonzero;stroke:none;stroke-width:2.65750003"
           d="m 706.98079,853.62288 c -2.03565,0.15413 -3.80022,0.33218 -5.56481,0.3933 -3.05346,0.11423 -6.10427,0.2498 -9.15508,0.20728 -3.0641,-0.0293 -6.12555,-0.32156 -9.19761,-0.3933 -3.58232,-0.093 -7.10084,0.40394 -10.44398,1.71142 -2.90731,1.14273 -4.26795,3.60357 -4.90043,6.51088 -0.68564,3.14382 -0.4252,6.30094 0.16742,9.42615 0.32156,1.69017 0.73613,3.36174 1.17196,5.25122 -0.34282,-0.36408 -0.5501,-0.62185 -0.78927,-0.86102 -3.75772,-3.92513 -6.7474,-8.30469 -8.26218,-13.5878 -1.45364,-5.02534 -1.08957,-10.00815 0.36408,-14.95907 1.80445,-6.17868 4.96156,-11.6372 8.78038,-16.74491 1.47492,-1.94263 3.0827,-3.80023 4.72504,-5.8146 0.15413,0.40659 0.24714,0.61388 0.32156,0.83179 1.07894,3.30062 2.18978,6.5906 3.22886,9.91247 0.23652,0.74941 0.57933,0.89292 1.33672,0.84243 4.07129,-0.29233 8.07614,-0.0105 11.8365,1.71143 1.31813,0.60326 2.56184,1.43239 3.6833,2.3572 4.77553,3.97563 10.24733,6.21856 16.38083,6.96532 0.47835,0.0531 0.96734,0.13552 1.4324,0.11423 0.52087,-0.0105 0.675,0.20729 0.64576,0.68564 -0.47834,8.10804 -3.6142,16.46322 -14.20167,20.13854 -4.13241,1.44302 -8.41897,1.85759 -12.76929,1.73269 -1.79647,-0.0505 -3.59028,-0.24715 -5.39738,-0.36143 v -0.20728 c 1.65031,-0.4066 3.32187,-0.81053 4.97217,-1.257 5.12899,-1.4005 10.12243,-3.1571 14.62689,-6.06175 2.43958,-1.57856 4.65062,-3.42552 6.0405,-6.06442 0.37471,-0.7255 0.61388,-1.53603 0.96733,-2.47944" />
        <path
           inkscape:connector-curvature="0"
           id="path628"
           style="fill:#ffffff;fill-opacity:1;fill-rule:nonzero;stroke:none;stroke-width:2.65750003"
           d="m 706.63797,859.64211 c -1.64234,2.06753 -3.63546,3.51056 -5.32563,4.60013 -0.44646,0.28967 -0.91417,0.58199 -1.37127,0.8504 2.8143,-1.32875 5.03596,-3.12522 6.6969,-5.45053 m -33.66521,-29.88625 c -0.64312,0.77866 -1.24637,1.53603 -1.82836,2.31468 -4.12178,5.4718 -6.86166,10.69378 -8.3977,15.94501 -1.44302,4.95358 -1.56793,9.39691 -0.36408,13.59045 0.57136,1.9825 1.40316,3.90121 2.49273,5.80132 -0.093,-1.82569 -0.0212,-3.82945 0.4252,-5.88636 0.91419,-4.1829 3.07208,-6.96531 6.40458,-8.28343 3.4574,-1.35798 7.29749,-1.99312 11.41928,-1.87885 1.4324,0.0319 2.87542,0.1037 4.27591,0.18868 1.61046,0.1037 3.28202,0.18603 4.88981,0.20729 2.71064,0.0293 5.49305,-0.085 8.16916,-0.18868 l 0.86368,-0.0186 c 1.1507,-0.0426 2.32532,-0.13553 3.57965,-0.23917 0.61388,-0.0531 1.24637,-0.1037 1.90012,-0.14616 0.84243,-0.0611 1.67157,0.31092 2.17914,0.99656 0.2817,0.38533 0.4385,0.83977 0.46772,1.29686 0.30296,-1.14008 0.53151,-2.35454 0.67501,-3.64344 -6.60123,-0.83977 -12.4557,-3.36174 -17.42789,-7.49415 -1.01781,-0.84243 -2.09677,-1.5254 -3.12521,-2.00376 -2.90731,-1.32875 -6.27967,-1.80709 -10.63001,-1.48553 -2.60701,0.17805 -3.55042,-1.53604 -3.87198,-2.58309 -0.675,-2.16055 -1.39252,-4.35033 -2.09676,-6.48963 m -3.89324,49.45609 c -0.69626,0.0105 -1.3819,-0.28169 -1.85759,-0.82117 l -0.32156,-0.35344 c -0.15679,-0.16477 -0.2817,-0.31094 -0.41722,-0.4571 -4.47258,-4.66126 -7.37989,-9.44476 -8.86542,-14.60561 -1.46162,-5.11569 -1.34736,-10.46258 0.37471,-16.34895 1.70345,-5.84385 4.71174,-11.56545 9.18697,-17.52355 1.04971,-1.38988 2.10739,-2.67877 3.23949,-4.03674 0.50758,-0.60326 1.01782,-1.23575 1.53604,-1.86026 0.5501,-0.69361 1.43239,-1.02579 2.30405,-0.89026 0.87166,0.1435 1.59981,0.73613 1.92137,1.54667 l 0.13553,0.35078 c 0.10369,0.23917 0.1754,0.42787 0.23652,0.61388 l 0.78928,2.4077 c 0.71752,2.17118 1.45365,4.38222 2.14992,6.59326 4.79679,-0.23918 8.66877,0.39331 12.13414,1.9825 1.44302,0.66437 2.86478,1.56792 4.23606,2.69736 4.33969,3.62482 9.29062,5.7216 15.10523,6.4152 l 0.23652,0.0319 c 0.32422,0.0426 0.61388,0.0824 0.81053,0.0718 1.22511,-0.0186 1.96124,0.45709 2.37847,0.89291 0.41456,0.4252 0.89292,1.19589 0.82913,2.41832 -0.68563,11.40068 -6.01923,18.90546 -15.86261,22.32035 -4.03675,1.41113 -8.50134,2.02501 -13.64893,1.86823 -1.29951,-0.0426 -2.59637,-0.13554 -3.84274,-0.22855 -0.5501,-0.0505 -1.11083,-0.093 -1.67156,-0.12491 -1.29687,-0.0824 -2.30405,-1.17194 -2.30405,-2.46881 v -0.20995 c 0,-1.12943 0.77864,-2.12599 1.87885,-2.40769 0.52087,-0.13553 1.04971,-0.25777 1.56792,-0.38268 1.11084,-0.28169 2.25356,-0.56073 3.35377,-0.86368 4.058,-1.10021 9.30125,-2.76114 13.93062,-5.76146 1.9001,-1.22245 3.27137,-2.39707 4.24668,-3.65407 -0.4571,0.0319 -0.90355,0.0531 -1.36064,0.0638 l -0.86103,0.0426 c -2.75052,0.10369 -5.58607,0.20728 -8.40834,0.1754 -1.72471,-0.0212 -3.4574,-0.12491 -5.11833,-0.21792 -1.36064,-0.0718 -2.76116,-0.14616 -4.1218,-0.18603 -3.46803,-0.0957 -6.64374,0.43583 -9.47663,1.54667 -1.77521,0.69361 -2.82493,2.15789 -3.38567,4.72237 -0.51821,2.4077 -0.46506,5.01472 0.17806,8.45086 0.20729,1.1002 0.46772,2.22167 0.74676,3.39363 0.13553,0.57136 0.27106,1.16133 0.40394,1.77521 0.2498,1.1002 -0.27904,2.23229 -1.27561,2.73988 -0.35344,0.18868 -0.73612,0.27106 -1.11083,0.28169" />
        <path
           inkscape:connector-curvature="0"
           id="path630"
           style="fill:#ffffff;fill-opacity:1;fill-rule:nonzero;stroke:none;stroke-width:2.65750003"
           d="m 687.75378,825.66597 c -0.69627,3.67532 -0.66438,7.18323 1.67157,10.47587 -3.60092,-1.52807 -7.10085,-2.23231 -10.79478,-1.17462 0.26841,-3.81882 4.74365,-8.41895 9.12321,-9.30125" />
        <path
           inkscape:connector-curvature="0"
           id="path632"
           style="fill:#ffffff;fill-opacity:1;fill-rule:nonzero;stroke:none;stroke-width:2.65750003"
           d="m 682.51318,831.98816 c 0.86104,0.0212 1.72207,0.1037 2.61499,0.26044 -0.16743,-0.88229 -0.23918,-1.74332 -0.24982,-2.57512 -0.91417,0.66437 -1.73268,1.47492 -2.36517,2.31468 m 6.93342,6.63313 c -0.33218,0 -0.675,-0.0718 -0.98593,-0.19666 -3.60357,-1.52541 -6.41521,-1.85759 -9.14711,-1.07894 -0.77866,0.21791 -1.60779,0.0505 -2.24028,-0.4571 -0.62451,-0.51821 -0.96732,-1.29686 -0.90355,-2.10739 0.34282,-4.9217 5.63656,-10.43336 11.09773,-11.54418 0.80788,-0.16477 1.63968,0.0824 2.22964,0.66437 0.58198,0.57136 0.84242,1.41113 0.69626,2.22168 -0.73613,3.81085 -0.36408,6.30093 1.24636,8.59701 0.64312,0.90089 0.60326,2.11537 -0.093,2.97905 -0.47835,0.58997 -1.18524,0.91153 -1.90011,0.92216" />
        <path
           inkscape:connector-curvature="0"
           id="path634"
           style="fill:#d71d23;fill-opacity:1;fill-rule:nonzero;stroke:none;stroke-width:2.65750003"
           d="m 716.11461,898.95451 c -2.56448,3.80023 -5.71894,6.572 -9.96562,7.95389 -1.57856,0.50759 -3.2076,0.71488 -4.8898,0.74676 0.18869,-1.07894 0.39597,-2.08613 0.52884,-3.09333 0.69627,-4.99344 -0.12227,-9.75834 -2.09677,-14.34783 -2.61497,-6.02988 -6.92278,-10.6805 -12.14476,-14.55248 -1.56793,-1.16399 -3.23951,-2.21104 -4.90044,-3.35376 4.30781,0.30029 8.51198,0.17538 12.45837,-1.67157 2.18977,3.28201 5.58339,4.95092 8.8229,6.77928 2.59637,1.46428 5.2831,2.75051 7.50478,4.79679 4.14304,3.80819 6.71815,8.50134 7.96186,13.98111 0.49961,2.17117 0.99657,4.35033 1.02845,6.59325 0.0824,7.99377 -3.1757,14.36645 -9.60154,19.07023 -4.98282,3.64343 -10.58748,5.8837 -16.69176,6.81914 -10.80806,1.6503 -20.05616,-1.70346 -28.1323,-8.80429 -3.22886,-2.84353 -5.33626,-6.4657 -7.30813,-10.18354 -2.36783,-4.44069 -4.2892,-9.06209 -6.03252,-13.7632 -0.73613,-1.99312 -1.62905,-3.90387 -2.91527,-5.60732 -2.12867,-2.83291 -4.35033,-3.82947 -7.89013,-3.67268 1.73269,-0.98859 3.44678,-2.03564 5.222,-2.96045 3.63279,-1.87885 7.46226,-3.16508 11.53089,-3.64343 7.27889,-0.85041 13.68346,1.1321 19.17386,6.01127 3.12522,2.79303 5.05722,6.35408 6.54011,10.20479 0.69627,1.83633 1.40315,3.67533 2.16055,5.50104 2.04361,4.99343 5.87573,7.70143 11.10568,8.6475 3.55043,0.63248 6.99721,0.48897 10.24733,-1.16399 4.14304,-2.10474 6.65438,-5.6153 8.28342,-9.85932 0.0212,-0.0531 0,-0.13554 0,-0.42786" />
        <path
           inkscape:connector-curvature="0"
           id="path636"
           style="fill:#d71d23;fill-opacity:1;fill-rule:nonzero;stroke:none;stroke-width:2.65750003"
           d="m 706.98079,853.62288 c -2.03565,0.15413 -3.80022,0.33218 -5.56481,0.3933 -3.05346,0.11423 -6.10427,0.2498 -9.15508,0.20728 -3.0641,-0.0293 -6.12555,-0.32156 -9.19761,-0.3933 -3.58232,-0.093 -7.10084,0.40394 -10.44398,1.71142 -2.90731,1.14273 -4.26795,3.60357 -4.90043,6.51088 -0.68564,3.14382 -0.4252,6.30094 0.16742,9.42615 0.32156,1.69017 0.73613,3.36174 1.17196,5.25122 -0.34282,-0.36408 -0.5501,-0.62185 -0.78927,-0.86102 -3.75772,-3.92513 -6.7474,-8.30469 -8.26218,-13.5878 -1.45364,-5.02534 -1.08957,-10.00815 0.36408,-14.95907 1.80445,-6.17868 4.96156,-11.6372 8.78038,-16.74491 1.47492,-1.94263 3.0827,-3.80023 4.72504,-5.8146 0.15413,0.40659 0.24714,0.61388 0.32156,0.83179 1.07894,3.30062 2.18978,6.5906 3.22886,9.91247 0.23652,0.74941 0.57933,0.89292 1.33672,0.84243 4.07129,-0.29233 8.07614,-0.0105 11.8365,1.71143 1.31813,0.60326 2.56184,1.43239 3.6833,2.3572 4.77553,3.97563 10.24733,6.21856 16.38083,6.96532 0.47835,0.0531 0.96734,0.13552 1.4324,0.11423 0.52087,-0.0105 0.675,0.20729 0.64576,0.68564 -0.47834,8.10804 -3.6142,16.46322 -14.20167,20.13854 -4.13241,1.44302 -8.41897,1.85759 -12.76929,1.73269 -1.79647,-0.0505 -3.59028,-0.24715 -5.39738,-0.36143 v -0.20728 c 1.65031,-0.4066 3.32187,-0.81053 4.97217,-1.257 5.12899,-1.4005 10.12243,-3.1571 14.62689,-6.06175 2.43958,-1.57856 4.65062,-3.42552 6.0405,-6.06442 0.37471,-0.7255 0.61388,-1.53603 0.96733,-2.47944" />
        <path
           inkscape:connector-curvature="0"
           id="path638"
           style="fill:#d71d23;fill-opacity:1;fill-rule:nonzero;stroke:none;stroke-width:2.65750003"
           d="m 687.75378,825.66597 c -0.69627,3.67532 -0.66438,7.18323 1.67157,10.47587 -3.60092,-1.52807 -7.10085,-2.23231 -10.79478,-1.17462 0.26841,-3.81882 4.74365,-8.41895 9.12321,-9.30125" />
      </g>
    </g>
    <g
       id="g10920"
       transform="matrix(1.6107879,0,0,1.6145193,-866.57852,-1481.3802)">
      <path
         d="m 653.45608,981.55492 1.48555,0.0105 15.00956,0.0531 c 3.27934,0.0105 3.47865,-0.30029 2.14991,-3.42552 -1.59982,-3.7577 -5.52495,-5.79334 -10.01877,-5.21135 -4.41145,0.57136 -8.01502,4.11115 -8.62625,8.57309 m 12.39458,8.40036 -11.3555,-0.0426 c -1.45365,0 -1.48554,0.0319 -0.91417,1.42176 1.87885,4.61874 6.12553,7.21512 11.50166,7.1221 3.26871,-0.0426 6.30093,-0.7999 9.12585,-2.50336 2.22964,-1.32876 4.72238,-0.83977 6.14414,1.09223 1.52541,2.04362 1.30749,4.69047 -0.58199,6.48697 -2.72925,2.6043 -6.11226,3.965 -9.73709,4.6187 -7.21511,1.2889 -14.04488,0.2498 -20.04552,-4.1723 -9.88059,-7.27618 -11.91623,-21.30247 -4.70111,-31.31859 7.78382,-10.80805 25.00707,-12.20856 33.86187,-2.24294 3.56104,3.99689 5.0333,8.79368 4.91105,14.05553 -0.0638,3.19697 -2.28544,5.4399 -5.50368,5.53291 -4.23341,0.13554 -8.46946,0.0105 -12.70551,-0.0105 z"
         style="fill:#ffffff;fill-opacity:1;fill-rule:nonzero;stroke:none;stroke-width:2.65750003"
         id="path640"
         inkscape:connector-curvature="0" />
      <path
         d="m 750.79765,981.88711 c 2.88604,0.0105 5.76147,-0.0105 8.64751,0.0531 0.87166,0.0212 1.19321,-0.20728 1.05769,-1.13209 -0.38269,-2.36518 -1.36861,-4.35831 -3.32188,-5.81196 -5.60467,-4.15367 -14.18043,-0.96732 -15.8706,5.88637 -0.19931,0.81851 0.0611,0.9939 0.83977,0.9939 2.87541,-0.0293 5.76146,0 8.64751,0.0105 m 3.39363,8.32594 -11.3555,-0.0398 c -1.63968,-0.0105 -1.69283,0.0823 -1.01782,1.63968 1.79646,4.19354 5.13961,6.24778 9.50853,6.77929 3.9145,0.47569 7.61905,-0.20995 11.00472,-2.3572 2.09676,-1.32876 4.47257,-0.98595 5.96874,0.79989 1.56792,1.87885 1.54667,4.64007 -0.0531,6.43647 -1.55729,1.7645 -3.6833,2.5432 -5.77209,3.3936 -9.8301,3.9969 -21.23874,1.5254 -27.9755,-6.1256 -3.17572,-3.59019 -4.82602,-7.8794 -5.1901,-12.64429 -0.582,-7.43304 1.77521,-13.75256 7.31875,-18.78852 3.18635,-2.88605 6.9972,-4.55762 11.24122,-5.1901 7.5792,-1.1321 14.24421,0.72549 19.50606,6.46568 3.55042,3.87464 4.96155,8.65814 4.85791,13.80838 -0.0505,3.59028 -2.63624,5.84385 -6.26904,5.85448 -3.92514,0.0105 -7.8476,-0.0212 -11.77273,-0.0319"
         style="fill:#ffffff;fill-opacity:1;fill-rule:nonzero;stroke:none;stroke-width:2.65750003"
         id="path642"
         inkscape:connector-curvature="0" />
      <path
         d="m 574.35293,985.65545 c -0.0611,-10.53433 8.04691,-19.8781 18.50949,-21.39287 1.20385,-0.16743 2.39973,-0.32422 3.62218,-0.30296 3.25012,0.0531 5.67906,2.41833 5.72158,5.60733 0.0505,3.02954 -2.3572,5.4399 -5.59669,5.5834 -4.80475,0.22855 -8.37643,2.45022 -10.2234,6.90419 -1.70346,4.08989 -1.00719,7.98313 1.95061,11.32627 2.9392,3.3511 6.70753,4.53634 10.99407,3.37236 4.30781,-1.18259 6.97594,-4.11115 7.9725,-8.49072 0.16477,-0.69625 0.21792,-1.43238 0.23918,-2.1499 0.13287,-3.12523 2.61498,-5.55419 5.69768,-5.50104 3.0641,0.0505 5.57543,2.52197 5.46116,5.68972 -0.28169,8.20902 -4.0075,14.53117 -11.06583,18.65297 -14.14055,8.233 -31.80762,-0.9859 -33.29317,-17.27373 -0.0611,-0.675 0.0105,-1.35002 0.0105,-2.02502"
         style="fill:#ffffff;fill-opacity:1;fill-rule:nonzero;stroke:none;stroke-width:2.65750003"
         id="path644"
         inkscape:connector-curvature="0" />
      <path
         d="m 706.79211,990.68078 c 2.02501,-4.13241 4.05003,-8.25153 6.06441,-12.35205 1.88683,-3.84275 3.77632,-7.67221 5.65517,-11.5123 1.11083,-2.24292 3.0322,-3.23949 5.40004,-3.10396 2.3439,0.13288 4.03674,1.46162 4.91902,3.66204 0.70691,1.79646 0.3322,3.51056 -0.51821,5.20073 -3.97561,7.922 -7.922,15.86261 -11.87637,23.80589 -1.5254,3.05081 -3.00032,6.13347 -4.6081,9.15507 -1.76457,3.29 -5.54354,4.1829 -8.53323,2.1393 -0.8504,-0.582 -1.41114,-1.3925 -1.85759,-2.2855 -5.53292,-11.21992 -11.06583,-22.43191 -16.56952,-33.67579 -1.48288,-3.04018 -0.5501,-5.91561 2.31469,-7.46226 2.74253,-1.46429 6.05378,-0.63515 7.60045,2.18977 1.92934,3.56105 3.6009,7.25498 5.36549,10.89842 1.95326,4.0075 3.87198,8.02565 5.81461,12.03315 0.21792,0.43583 0.32156,0.94341 0.82914,1.30749"
         style="fill:#ffffff;fill-opacity:1;fill-rule:nonzero;stroke:none;stroke-width:2.65750003"
         id="path646"
         inkscape:connector-curvature="0" />
      <path
         d="m 635.71461,975.09986 c -0.0319,9.15509 -0.0398,18.29955 -0.1037,27.45734 -0.0105,2.9578 -2.03298,5.2405 -4.83665,5.6046 -2.82492,0.3641 -5.54354,-1.4324 -6.33282,-4.1723 -0.27107,-0.9248 -0.27904,-1.8788 -0.27904,-2.8249 0.0611,-17.85306 0.11424,-35.70881 0.1754,-53.56455 0.0105,-3.17571 1.6822,-5.51166 4.39018,-6.20792 3.08271,-0.79991 6.08302,0.99657 6.82181,4.11115 0.20728,0.87167 0.27904,1.77521 0.26841,2.68939 -0.0399,8.95843 -0.0718,17.92749 -0.1037,26.90719"
         style="fill:#ffffff;fill-opacity:1;fill-rule:nonzero;stroke:none;stroke-width:2.65750003"
         id="path648"
         inkscape:connector-curvature="0" />
      <path
         d="m 789.17461,969.12048 c 2.96046,-3.21823 6.45772,-4.62936 10.50509,-4.68252 2.82493,-0.0319 4.87917,1.58919 5.38941,4.15102 0.53948,2.64954 -0.81053,5.22199 -3.32186,6.27171 -0.82117,0.36408 -1.69283,0.58199 -2.60701,0.66437 -5.85448,0.57136 -9.62281,4.71174 -9.66268,10.65126 -0.0426,5.63656 0,11.26249 -0.0957,16.89908 -0.0718,4.2148 -3.87199,6.8005 -7.82634,5.3575 -2.31468,-0.8318 -3.64343,-2.5432 -3.89324,-5.036 -0.0399,-0.3641 -0.0505,-0.7255 -0.0505,-1.0896 0.0399,-10.80534 0.0717,-21.62403 0.12491,-32.42942 0.0105,-3.97563 3.16508,-6.54012 7.03706,-5.72958 2.5326,0.52885 3.88261,2.2509 4.40081,4.97218"
         style="fill:#ffffff;fill-opacity:1;fill-rule:nonzero;stroke:none;stroke-width:2.65750003"
         id="path650"
         inkscape:connector-curvature="0" />
    </g>
    <text
       xml:space="preserve"
       style="font-style:normal;font-variant:normal;font-weight:bold;font-stretch:normal;font-size:32.50717163px;line-height:1.25;font-family:Comfortaa;-inkscape-font-specification:'Comfortaa Bold';text-align:start;letter-spacing:0px;word-spacing:0px;text-anchor:start;fill:#ffffff;fill-opacity:1;stroke:none;stroke-width:0.3386164"
       x="56.317577"
       y="215.96623"
       id="text10846"
       transform="scale(0.99884376,1.0011576)"><tspan
         sodipodi:role="line"
         x="56.317577"
         y="215.96623"
         style="text-align:start;text-anchor:start;fill:#ffffff;stroke-width:0.3386164"
         id="tspan10870">hydration + performance </tspan><tspan
         sodipodi:role="line"
         x="56.317577"
         y="256.60019"
         style="text-align:start;text-anchor:start;fill:#ffffff;stroke-width:0.3386164"
         id="tspan10924">liquid drops.  </tspan></text>
  </g>
</svg>
